PathFileType	4	(X/Y/Z)	 s05c0302.trc
DataRate	CameraRate	NumFrames	NumMarkers	Units	OrigDataRate	OrigDataStartFrame	OrigNumFrames
200	200	7	49	mm	200	501	2000
Frame#	Time	racr			lacr			c7			jug			rlel			rdr			llel			ldr			s2			lic			ric			lasi			rasi			rpsi			lpsi			rgt			lgt			rth1			rth2			rth3			rth4			rlfc			rsh1			rsh2			rsh3			rsh4			rlmal			rmmal			rcal			rtoe			rmt5			lth1			lth2			lth4			lth3			llfc			lmfc			lsh1			lsh2			lsh3			lsh4			llmal			lmmal			lcal			ltoe			lmt5			SBIKE			LBIKE			RBIKE			
		X1	Y1	Z1	X2	Y2	Z2	X3	Y3	Z3	X4	Y4	Z4	X5	Y5	Z5	X6	Y6	Z6	X7	Y7	Z7	X8	Y8	Z8	X9	Y9	Z9	X10	Y10	Z10	X11	Y11	Z11	X12	Y12	Z12	X13	Y13	Z13	X14	Y14	Z14	X15	Y15	Z15	X16	Y16	Z16	X17	Y17	Z17	X18	Y18	Z18	X19	Y19	Z19	X20	Y20	Z20	X21	Y21	Z21	X22	Y22	Z22	X23	Y23	Z23	X24	Y24	Z24	X25	Y25	Z25	X26	Y26	Z26	X27	Y27	Z27	X28	Y28	Z28	X29	Y29	Z29	X30	Y30	Z30	X31	Y31	Z31	X32	Y32	Z32	X33	Y33	Z33	X34	Y34	Z34	X35	Y35	Z35	X36	Y36	Z36	X37	Y37	Z37	X38	Y38	Z38	X39	Y39	Z39	X40	Y40	Z40	X41	Y41	Z41	X42	Y42	Z42	X43	Y43	Z43	X44	Y44	Z44	X45	Y45	Z45	X46	Y46	Z46	X47	Y47	Z47	X48	Y48	Z48	X49	Y49	Z49	
501	2.5050	728.716089	1329.421964	-124.682729	743.105555	1322.680808	-417.487918	729.832758	1403.544707	-281.502024	679.582031	1249.305774	-269.617463	576.438882	1112.167695	-0.407216	708.430271	924.436867	-66.252927	552.587682	1116.709117	-545.712288	706.842117	937.496006	-453.918194	155.621204	1233.777493	-279.548760	316.350108	1204.570871	-407.385327	292.127325	1267.100073	-129.701806	351.901814	1150.873474	-358.941574	318.550203	1193.503344	-146.096454	191.758284	1283.162442	-244.180652	206.413175	1269.841316	-328.095122	235.268158	1138.239181	-87.770359	229.054123	1113.837472	-421.277447	331.286878	1067.939339	-64.619042	413.159445	1033.385341	-57.406532	464.991470	962.122718	-53.058989	435.125836	1059.565812	-71.954825	561.689338	855.332963	-71.261842	464.400464	809.581969	-52.917531	405.223461	746.114391	-71.440856	325.043698	718.457976	-80.253191	425.041594	723.049898	-95.355609	219.415842	643.109949	-97.436120	252.405412	657.526862	-173.044546	153.624299	679.773278	-143.644213	297.811646	422.625975	-151.255457	225.124917	491.635769	-82.483979	255.169542	981.745665	-441.334448	289.019714	903.372918	-437.743054	323.784426	906.888201	-424.145243	276.838184	813.318954	-436.915415	281.035528	673.415230	-404.113443	254.133196	661.719294	-301.926570	221.652895	562.460037	-441.617947	216.561394	475.851672	-431.955436	168.742316	401.084425	-436.615969	244.490504	468.502423	-406.474536	142.007405	288.943352	-431.300377	167.393489	308.848648	-360.242005	73.978075	269.609708	-395.224471	338.175778	136.231271	-391.048544	231.105694	154.501593	-458.667290	-163.898982	903.725097	-266.338753	-43.491725	84.983921	-474.582638	-51.671639	80.227122	-77.064352	
502	2.5100	728.692152	1329.003334	-122.455056	744.460471	1322.162385	-415.079188	731.002445	1403.048741	-279.267997	679.462063	1248.891337	-267.548395	576.466233	1111.951030	0.204207	708.327055	924.975419	-66.225646	554.340053	1117.515105	-545.508849	707.377032	937.084756	-453.725132	155.869372	1236.754746	-282.910627	318.267546	1206.109655	-408.605012	290.356094	1270.197265	-131.653295	352.598116	1152.585308	-359.260119	316.338948	1196.281733	-147.421333	190.319224	1286.974932	-246.400747	207.333772	1272.360075	-331.182195	233.492719	1142.252192	-89.798818	230.396581	1115.802299	-423.053245	329.832273	1072.681090	-67.214667	411.938079	1039.226203	-58.922808	464.753902	968.529739	-54.660163	433.805177	1065.593625	-73.724796	563.788733	862.703898	-72.561921	467.009279	815.393847	-54.347027	409.110756	750.838316	-72.491769	329.536107	721.704158	-81.145918	429.400108	727.955989	-96.223705	225.005306	644.363879	-97.850921	257.510886	659.179146	-173.431475	158.616367	679.204371	-143.641661	309.078335	425.919228	-151.426111	234.294993	493.328232	-82.281846	256.033207	984.503325	-442.142586	289.048224	905.795279	-438.192812	323.598569	908.887208	-423.962005	275.959176	815.860215	-437.822125	277.576133	675.329499	-405.202522	249.917567	664.450519	-302.858608	217.166537	564.893148	-442.807179	211.872815	478.212128	-432.887586	163.915460	403.653983	-437.515841	239.996203	470.780747	-407.678098	136.941695	291.565988	-432.264443	161.953792	309.922263	-361.090657	68.530634	274.087505	-396.144800	328.845254	133.285790	-390.864555	222.555523	154.397774	-458.776650	-164.163316	903.745295	-265.727493	-43.510098	85.105526	-474.572380	-51.678931	80.239355	-77.057414	
503	2.5150	728.834810	1328.343785	-120.358735	745.637152	1321.476623	-412.743418	732.209972	1402.417054	-277.132733	679.266546	1248.526668	-265.726065	576.416945	1111.320798	0.953967	708.245146	925.482778	-65.933748	555.916546	1118.156573	-545.227243	707.911569	936.707834	-453.587217	156.176197	1240.115135	-286.300871	319.827224	1208.011528	-409.883685	293.037148	1273.498204	-131.119441	352.901313	1154.472592	-359.598463	314.099098	1199.768817	-149.296707	190.631069	1290.495828	-250.559247	208.200665	1275.425876	-334.581876	231.562847	1146.642684	-91.962341	231.400111	1118.081658	-424.671424	328.026368	1077.370565	-69.655496	410.617185	1044.734205	-61.040844	463.919676	974.597879	-56.236431	432.142890	1071.502100	-75.418225	565.300467	869.934850	-73.883042	469.397351	821.029241	-55.982555	412.756319	755.263277	-73.717822	333.702354	724.617225	-82.094550	433.395190	732.442099	-97.081958	230.293573	645.008740	-98.386666	262.318387	660.235898	-173.881034	162.544678	678.119233	-144.311360	319.498464	428.834043	-150.796857	243.510648	494.167126	-82.160107	256.999624	987.392479	-442.696018	289.442760	908.432183	-438.409754	323.818346	911.373141	-423.663756	275.730905	818.601267	-438.242231	275.156789	677.616549	-406.211476	247.169614	667.243961	-303.627884	213.790066	567.654426	-443.887450	208.087663	481.043579	-433.838007	159.657231	406.706843	-438.162895	236.204709	473.403832	-408.729400	131.795914	294.705573	-433.174111	156.676101	311.557426	-361.816069	63.197499	278.916400	-396.801785	319.384483	130.961201	-390.949524	213.846139	154.786297	-458.894708	-164.305872	903.813333	-265.431661	-43.514732	85.198305	-474.550364	-51.689269	80.304454	-77.043598	
504	2.5200	729.001136	1327.345027	-118.197992	746.694897	1320.592504	-410.522483	733.317618	1401.522782	-275.127732	679.019004	1247.843742	-263.859569	576.156346	1111.044757	1.927255	708.268232	926.054484	-65.704776	557.282243	1118.595313	-544.698321	708.355228	936.289386	-453.563840	156.421648	1243.789985	-289.367362	321.224370	1210.351441	-412.062637	290.649687	1276.842421	-133.379726	353.065889	1156.620624	-360.250051	312.246431	1203.278627	-150.929386	191.295708	1293.583688	-252.525601	208.754033	1278.915996	-338.141615	228.816450	1151.298844	-93.908507	232.085503	1120.734265	-426.337131	326.027809	1082.014537	-71.752785	408.816328	1049.978935	-63.109467	462.634548	980.562858	-57.824587	430.159406	1077.106414	-76.951602	566.062236	876.530456	-75.271608	471.287317	826.308519	-57.765327	415.953461	759.248078	-74.936574	337.515468	727.123552	-83.159899	437.041652	736.716351	-98.023530	235.121416	644.928939	-99.014472	266.879932	660.570680	-174.419757	166.415570	676.144663	-145.039960	330.404475	431.322705	-150.442724	252.547950	494.788153	-81.933466	257.896905	990.312125	-443.138500	290.113406	911.245111	-438.392796	324.362863	914.061296	-423.374972	276.199665	821.436174	-438.352807	273.911040	680.027484	-407.171720	245.901568	669.855168	-303.996841	211.355767	570.728324	-444.807949	204.897231	484.100425	-434.585609	155.804468	410.160613	-438.651456	233.121725	476.245620	-409.621200	126.554747	298.308486	-434.067701	151.585730	313.764574	-362.405281	57.806802	284.127734	-397.251417	309.844838	129.375802	-390.927466	204.984538	155.804236	-458.925360	-164.482780	903.854222	-265.415882	-43.519263	85.348566	-474.546200	-51.684815	80.342345	-77.030680	
505	2.5250	729.146721	1326.110765	-116.237629	747.615466	1319.598670	-408.379468	734.342705	1400.487072	-273.295561	678.645888	1247.070361	-262.187592	575.600829	1110.728761	2.888296	708.365529	926.836321	-65.564281	558.464548	1118.858949	-544.069536	708.688775	935.911138	-453.594876	155.982633	1248.085489	-292.690117	322.173816	1212.637338	-413.302151	288.668844	1279.882657	-135.277874	352.827745	1158.906486	-360.810461	314.046000	1207.665268	-148.480213	192.370606	1297.254399	-255.469992	209.501193	1282.471238	-340.683477	226.183241	1156.425170	-95.683104	232.576200	1123.609818	-427.984572	323.508358	1086.572176	-74.011921	406.734380	1055.040093	-65.167732	461.331081	985.922253	-60.348731	427.929365	1082.460316	-78.575273	566.161122	882.741821	-76.142604	472.724959	831.091334	-59.694460	418.702601	762.785477	-76.204604	341.076963	728.838517	-84.503262	440.220291	740.564086	-99.041718	239.450244	644.221262	-99.879164	270.800020	660.292118	-175.144827	169.656144	673.216682	-145.862941	341.529476	433.836149	-150.324907	261.471857	494.837211	-81.822915	259.002996	993.124620	-443.651139	291.210558	914.099517	-438.443377	325.310193	917.058879	-423.063154	277.428416	824.216732	-438.734743	273.892252	682.469061	-407.937156	246.073012	672.235365	-304.036500	209.881847	573.848222	-445.460567	202.277600	487.395808	-435.202138	152.318559	414.107686	-439.267493	230.560313	479.150053	-410.398480	121.159707	302.300599	-434.870306	146.707991	316.554139	-362.845329	52.154252	289.620105	-397.579709	300.131098	128.370815	-391.082771	196.053155	157.365034	-458.937171	-164.476241	903.958836	-265.108773	-43.515632	85.502706	-474.542721	-51.673603	80.410657	-77.023699	
506	2.5300	729.143213	1324.646559	-114.292144	748.388333	1318.423780	-406.268451	735.265569	1399.310430	-271.480455	678.198439	1246.059600	-260.518715	574.740747	1110.229193	3.913022	708.253378	927.876268	-64.961623	559.434758	1118.937773	-543.296716	709.002800	935.254744	-453.269004	156.298524	1252.241901	-295.817764	322.847525	1215.213260	-414.697034	287.064204	1283.296042	-137.168354	352.479443	1161.322270	-361.792359	311.849927	1210.828570	-150.538619	190.795808	1302.083956	-258.391253	210.180049	1286.075364	-343.058804	224.881735	1161.334625	-97.894310	232.761788	1126.629246	-429.664114	321.188178	1091.094807	-75.914154	404.421104	1059.714531	-67.300382	459.191692	990.889631	-62.218159	425.592813	1087.389904	-80.290315	566.176305	888.416959	-78.193617	473.642913	835.200395	-61.731583	420.960993	765.491219	-77.738694	343.882818	730.508310	-85.464350	442.972943	743.630647	-100.033187	243.107482	642.714780	-100.820764	274.289967	659.273411	-176.004538	172.370206	669.229548	-147.052043	352.627577	435.918813	-149.461725	269.771492	494.275501	-81.846520	260.182767	995.820753	-444.145271	292.713681	917.061094	-438.438036	326.650768	920.168001	-422.829214	279.334802	827.038566	-438.744480	275.214123	684.899894	-408.376276	247.577758	674.566947	-303.944462	209.325684	577.292408	-445.797725	200.260971	490.924841	-435.658177	149.063220	418.506941	-439.821829	228.441351	482.087476	-410.911885	115.693096	306.651507	-435.619966	142.068197	319.936557	-363.123253	46.419258	295.294513	-397.833582	290.436663	128.149516	-391.111120	187.062674	159.402673	-458.871725	-164.334830	904.127340	-264.999556	-43.502839	85.695600	-474.503460	-51.649001	80.481555	-76.983965	
507	2.5350	729.007679	1322.883152	-112.637441	748.910393	1317.116014	-404.194117	736.054723	1398.019206	-269.717962	677.640564	1244.954430	-259.090525	573.568988	1109.514666	4.986513	708.107572	928.882938	-64.515990	560.222262	1118.840372	-542.498093	709.170985	934.492282	-452.788048	156.690102	1256.408602	-297.728377	323.351673	1217.897382	-416.090638	285.919447	1286.429974	-138.931436	351.889820	1163.807137	-362.780324	310.090329	1213.886350	-152.390936	191.291371	1306.163359	-261.376756	210.780368	1290.094254	-345.611434	223.151540	1166.501670	-100.043391	232.716183	1129.785349	-431.322677	318.624813	1095.459739	-77.870344	401.859035	1063.769660	-69.907662	456.602198	995.326241	-64.151214	423.140445	1091.587212	-83.327149	565.348063	893.082218	-79.696571	473.971380	838.629843	-63.815292	422.722842	767.759658	-79.069055	346.211480	731.348200	-86.728313	445.136401	745.934054	-101.126893	246.259411	640.367108	-101.948923	278.165087	657.447208	-177.075743	174.569238	664.275078	-148.334072	363.389186	437.726082	-148.869221	278.079167	493.376171	-81.705118	261.419668	998.490468	-444.593531	294.500368	919.994991	-438.362896	328.314065	923.339849	-422.501096	281.941537	829.951443	-438.877608	277.840912	687.236131	-408.399323	249.938370	677.059676	-303.922019	209.810415	580.719697	-445.814476	198.836969	494.638943	-435.803886	146.112313	423.307331	-440.228071	226.879936	485.094841	-411.293003	110.286577	311.410916	-436.255624	137.691660	323.922262	-363.226091	40.741905	301.322880	-398.014269	280.721635	128.583375	-391.152313	178.184690	162.127671	-458.748227	-164.125512	903.558737	-267.161272	-43.499446	85.876696	-474.456953	-51.633141	80.515471	-76.981162	
